<svg xmlns="http://www.w3.org/2000/svg" xmlns:xlink="http://www.w3.org/1999/xlink" xmlns:sketch="http://www.bohemiancoding.com/sketch/ns" viewBox="0 0 40 50" version="1.1" x="0px" y="0px"><title>lyre_instrument_music</title><desc>Created with Sketch.</desc><g stroke="none" stroke-width="1" fill="none" fill-rule="evenodd" sketch:type="MSPage"><path d="M13.9920144,7 C12.7871875,4.38385098 10.7159925,3.78135945 9,4 C7.89804924,4.14040336 7,4.8954305 7,6 C7,7.1045695 7.8954305,8 9,8 C9.77428736,8 10.4519128,7.57067261 10.7781676,6.91640149 C11.3356934,5.79833983 12.9676448,8.72378267 11.5012207,12.0544437 C9.68103125,16.1886053 6.48599937,21.1752214 7.20214844,26.127807 C8.1015625,32.3477762 12.0213623,35.955443 20,35.9554443 C27.9786377,35.955443 31.8984375,32.3477762 32.7978516,26.127807 C33.5140006,21.1752214 30.3189687,16.1886053 28.4987793,12.0544437 C27.0323552,8.72378267 28.6643066,5.79833983 29.2218324,6.91640149 C29.5480872,7.57067261 30.2257126,8 31,8 C32.1045695,8 33,7.1045695 33,6 C33,4.8954305 32.1019508,4.14040336 31,4 C29.2840075,3.78135945 27.2128125,4.38385098 26.0079856,7 L13.9920144,7 Z M14.4317799,9 C14.4830622,13.2744578 10.4601941,19.9871907 11.3356933,25.3034677 C11.7242961,27.6631729 13.2262296,29.1216956 15,29.980246 L15,9 L14.4317799,9 Z M16,30.3945812 C16.6645645,30.6280476 17.3443342,30.7908718 18,30.8971245 L18,9 L16,9 L16,30.3945812 Z M19,31.0191512 C19.3498988,31.0479984 19.6855889,31.0611566 20,31.0611566 C20.3144111,31.0611566 20.6501012,31.0479984 21,31.0191512 L21,9 L19,9 L19,31.0191512 Z M22,30.8971245 C22.6556658,30.7908718 23.3354355,30.6280476 24,30.3945812 L24,9 L22,9 L22,30.8971245 Z M25,29.980246 C26.7737704,29.1216956 28.2757039,27.6631729 28.6643067,25.3034677 C29.5398059,19.9871907 25.5169378,13.2744578 25.5682201,9 L25,9 L25,29.9802454 Z" fill="#000000" sketch:type="MSShapeGroup"/></g><text x="0" y="55" fill="#000000" font-size="5px" font-weight="bold" font-family="'Helvetica Neue', Helvetica, Arial-Unicode, Arial, Sans-serif">Created by Pham Thi Dieu Linh</text><text x="0" y="60" fill="#000000" font-size="5px" font-weight="bold" font-family="'Helvetica Neue', Helvetica, Arial-Unicode, Arial, Sans-serif">from the Noun Project</text></svg>