<svg xmlns="http://www.w3.org/2000/svg" viewBox="0 0 68 85" x="0px" y="0px"><path fill="#000000" fill-rule="evenodd" d="M464.920195,312.07385 L435.096404,312.020344 C435.649643,310.271152 435.891479,309.049494 435.96668,307.751635 C435.994923,307.264211 436,306.899436 436,306 C436,300.477153 431.522847,296 426,296 C420.477153,296 416,300.477153 416,306 C416,308.20142 416.716443,310.292779 417.999681,312.000764 L418.273461,312.316102 C418.635468,312.733058 419.24243,312.75757 419.642664,312.357336 L421.043628,310.956372 C421.437811,310.562189 421.474626,309.897541 421.123446,309.468897 L420.998064,309.315857 C420.354338,308.347636 420,307.203272 420,306 C420,302.686292 422.686292,300 426,300 C429.313708,300 432,302.686292 432,306 C432,306.820686 431.995601,307.136713 431.973378,307.520253 C431.912022,308.579159 431.694338,309.592432 431.102633,311.367544 C431.025468,311.59904 430.595038,312.74681 430.137894,313.962261 C428.768111,317.579444 428.087696,319.446537 427.161931,322.22199 C426.166855,325.205239 425.32379,328.040301 424.654999,330.731844 C423.584585,335.039718 423,338.820416 423,342 C423,354.260695 435.174132,364 450,364 C464.825868,364 477,354.260695 477,342 C477,338.811695 476.408522,335.010417 475.326142,330.672038 C474.660275,328.003121 473.823761,325.19218 472.838241,322.234904 C471.90113,319.42289 471.187486,317.466126 469.801441,313.804417 C469.378919,312.680021 468.974187,311.598006 468.897367,311.367544 C468.326849,309.655991 468.108797,308.701342 468.03795,307.746263 C468.006179,307.317964 468,306.965169 468,306 C468,302.686292 470.686292,300 474,300 C477.313708,300 480,302.686292 480,306 C480,307.18783 479.654699,308.318253 479.026577,309.278493 L478.875426,309.46439 C478.525948,309.894206 478.556139,310.556139 478.956372,310.956372 L480.357336,312.357336 C480.751519,312.751519 481.359426,312.734039 481.720114,312.312473 L482.086826,311.883866 C483.315713,310.197779 484,308.151449 484,306 C484,300.477153 479.522847,296 474,296 C468.477153,296 464,300.477153 464,306 C464,307.066849 464.007245,307.480485 464.04891,308.042169 C464.137852,309.241183 464.381946,310.387881 464.920195,312.07385 Z M462,351.007214 C462,351.547638 461.54809,352 460.990631,352 L459.009369,352 C458.443353,352 458,351.555514 458,351.007214 L458,320.992786 C458,320.452362 458.45191,320 459.009369,320 L460.990631,320 C461.556647,320 462,320.444486 462,320.992786 L462,351.007214 Z M452,354.999581 C452,355.544827 451.54809,356 450.990631,356 L449.009369,356 C448.443353,356 448,355.552097 448,354.999581 L448,321.000419 C448,320.455173 448.45191,320 449.009369,320 L450.990631,320 C451.556647,320 452,320.447903 452,321.000419 L452,354.999581 Z M442,351.007214 C442,351.547638 441.54809,352 440.990631,352 L439.009369,352 C438.443353,352 438,351.555514 438,351.007214 L438,320.992786 C438,320.452362 438.45191,320 439.009369,320 L440.990631,320 C441.556647,320 442,320.444486 442,320.992786 L442,351.007214 Z" transform="translate(-416 -296)"/><text x="0" y="83" fill="#000000" font-size="5px" font-weight="bold" font-family="'Helvetica Neue', Helvetica, Arial-Unicode, Arial, Sans-serif">Created by Andrejs Kirma</text><text x="0" y="88" fill="#000000" font-size="5px" font-weight="bold" font-family="'Helvetica Neue', Helvetica, Arial-Unicode, Arial, Sans-serif">from the Noun Project</text></svg>