<svg xmlns="http://www.w3.org/2000/svg" xmlns:xlink="http://www.w3.org/1999/xlink" viewBox="0 0 68 85" version="1.1" x="0px" y="0px"><title>harp</title><desc>Created with Sketch.</desc><g stroke="none" stroke-width="1" fill="none" fill-rule="evenodd"><g transform="translate(-656.000000, -296.000000)" fill="#000000"><g transform="translate(656.000000, 296.000000)"><path d="M15.1661954,64 L20,64 C21.1045695,64 22,64.8954305 22,66 C22,67.1045695 21.1045695,68 20,68 L2,68 C0.8954305,68 0,67.1045695 0,66 C0,64.8954305 0.8954305,64 2,64 L9,64 L9,2 C9,0.8954305 9.8954305,0 11,0 C12.1045695,0 13,0.8954305 13,2 L13,60.6053223 L64.7366541,18.44953 C65.592955,17.7518034 66.8527433,17.8803532 67.55047,18.7366541 C68.2481966,19.592955 68.1196468,20.8527433 67.2633459,21.55047 L15.1661954,64 L15.1661954,64 Z"/><path d="M23,15 C23,13.8954305 22.1045695,13 21,13 C19.8954305,13 19,13.8954305 19,15 L19,48 C19,49.1045695 19.8954305,50 21,50 C22.1045695,50 23,49.1045695 23,48 L23,15 Z"/><path d="M43,26 C43,24.8954305 42.1045695,24 41,24 C39.8954305,24 39,24.8954305 39,26 L39,33 C39,34.1045695 39.8954305,35 41,35 C42.1045695,35 43,34.1045695 43,33 L43,26 Z"/><path d="M33,19 C33,17.8954305 32.1045695,17 31,17 C29.8954305,17 29,17.8954305 29,19 L29,40 C29,41.1045695 29.8954305,42 31,42 C32.1045695,42 33,41.1045695 33,40 L33,19 Z"/><path d="M13.1835778,9.8804093 C17.9993837,9.46491848 23.649354,10.0801824 28.9794942,12.5316494 C31.4186273,13.6534688 33.6513624,15.1198327 35.6390978,16.965587 C37.9464683,19.1081453 40.5347705,20.8080303 43.349107,22.1024152 C49.4051618,24.8877489 55.7135287,25.5747101 61.1602508,25.104786 C61.6943261,25.0587079 62.0824043,25.0111484 62.3066747,24.9763478 C63.3981814,24.8069761 64.1457195,23.7848321 63.9763478,22.6933253 C63.8069761,21.6018186 62.7848321,20.8542805 61.6933253,21.0236522 C61.5560999,21.0449458 61.2575984,21.0815276 60.8164222,21.1195907 C56.0006163,21.5350815 50.350646,20.9198176 45.0205058,18.4683506 C42.5813727,17.3465312 40.3486376,15.8801673 38.3609022,14.034413 C36.0535317,11.8918547 33.4652295,10.1919697 30.650893,8.89758476 C24.5948382,6.11225111 18.2864713,5.42528991 12.8397492,5.89521397 C12.3056739,5.9412921 11.9175957,5.98885162 11.6933253,6.02365219 C10.6018186,6.19302393 9.85428046,7.21516791 10.0236522,8.30667466 C10.1930239,9.39818141 11.2151679,10.1457195 12.3066747,9.97634781 C12.4439001,9.9550542 12.7424016,9.91847244 13.1835778,9.8804093 Z"/></g></g></g><text x="0" y="83" fill="#000000" font-size="5px" font-weight="bold" font-family="'Helvetica Neue', Helvetica, Arial-Unicode, Arial, Sans-serif">Created by Andrejs Kirma</text><text x="0" y="88" fill="#000000" font-size="5px" font-weight="bold" font-family="'Helvetica Neue', Helvetica, Arial-Unicode, Arial, Sans-serif">from the Noun Project</text></svg>