<svg xmlns="http://www.w3.org/2000/svg" xmlns:xlink="http://www.w3.org/1999/xlink" version="1.1" x="0px" y="0px" viewBox="0 0 30 37.5" xml:space="preserve"><g transform="translate(-330 -80)"><g xmlns="http://www.w3.org/2000/svg" xmlns:xlink="http://www.w3.org/1999/xlink"><path d="M345,87.151v15.403c0.37,0.52,0.707,0.991,1,1.403V86.256C345.64,86.508,345.31,86.805,345,87.151z"/><path d="M348,104V85.373c-0.36,0.091-0.691,0.202-1,0.332V104H348z"/><path d="M350,104V85.069c-0.354,0.027-0.687,0.063-1,0.11V104H350z"/><path d="M343,89.701V99.75c0.344,0.482,0.679,0.951,1,1.402V88.479C343.663,88.953,343.331,89.36,343,89.701z"/><path d="M341,90.999v5.945c0.334,0.468,0.669,0.938,1,1.403v-7.814C341.676,90.738,341.346,90.897,341,90.999z"/><path d="M339.828,91.163c-0.27,0-0.545-0.025-0.828-0.068v3.044c0.325,0.455,0.659,0.924,1,1.402v-4.39    C339.942,91.153,339.888,91.163,339.828,91.163z"/><path d="M337,90.578v0.754c0.306,0.429,0.641,0.898,1,1.403v-1.859C337.682,90.791,337.348,90.691,337,90.578z"/><path d="M354,107v-2h-1V81h1v-1h-4v1h1v0.016V82v0.016c-4.709,0.143-7.187,1.358-9.233,4.43c-1.41,2.115-1.541,2.071-4.871,0.938    l-0.98-0.332c-1.685-0.561-2.854-0.42-3.476,0.42c-0.701,0.943-0.254,2.264,0.343,3.106c0.67,0.948,7.534,10.576,10.277,14.423    H342v2h-1v1h14v-1H354z M341,98.667c-0.331-0.464-0.665-0.933-1-1.402c-0.335-0.471-0.67-0.94-1-1.403    c-2.233-3.134-4.238-5.948-4.585-6.438c-0.198-0.28-0.295-0.548-0.324-0.708c0.173-0.014,0.531,0.014,1.191,0.234l0.969,0.326    c0.262,0.09,0.509,0.173,0.749,0.253c0.353,0.117,0.688,0.226,1,0.316c0.355,0.102,0.686,0.184,1,0.24    c0.354,0.063,0.684,0.086,1,0.07c0.348-0.018,0.678-0.087,1-0.223c0.337-0.141,0.667-0.355,1-0.652    c0.325-0.289,0.654-0.651,1-1.114c0.141-0.188,0.283-0.391,0.431-0.61c0.185-0.278,0.375-0.532,0.569-0.773    c0.314-0.389,0.645-0.729,1-1.026c0.311-0.26,0.643-0.486,1-0.682c0.311-0.17,0.644-0.317,1-0.442c0.313-0.11,0.645-0.204,1-0.283    c0.315-0.07,0.646-0.131,1-0.179c0.315-0.042,0.651-0.074,1-0.1c0.318-0.024,0.65-0.042,1-0.053v1V105h-4.257H346h-0.485    c-0.132-0.186-0.307-0.431-0.515-0.723c-0.277-0.389-0.615-0.863-1-1.402c-0.308-0.432-0.643-0.901-1-1.402    c-0.319-0.447-0.653-0.917-1-1.402C341.675,99.613,341.34,99.144,341,98.667z"/></g></g><text x="0" y="45" fill="#000000" font-size="5px" font-weight="bold" font-family="'Helvetica Neue', Helvetica, Arial-Unicode, Arial, Sans-serif">Created by Hea Poh Lin</text><text x="0" y="50" fill="#000000" font-size="5px" font-weight="bold" font-family="'Helvetica Neue', Helvetica, Arial-Unicode, Arial, Sans-serif">from the Noun Project</text></svg>