<svg xmlns="http://www.w3.org/2000/svg" xmlns:xlink="http://www.w3.org/1999/xlink" version="1.1" x="0px" y="0px" viewBox="0 0 90 112.5" style="enable-background:new 0 0 90 90;" xml:space="preserve"><g><path d="M45,90c-3.7,0-6.8-3-6.8-6.8v-9.7c-2.7-0.5-4.8-2.6-5.3-5.3h-4.3c-3.7,0-6.8-3-6.8-6.8v-8.2c0-0.7,0.6-1.3,1.3-1.3h13.6   c0.8,0,1.4-0.6,1.4-1.4c0-0.8-0.6-1.4-1.4-1.4H23.2c-0.7,0-1.3-0.6-1.3-1.3V36.8c0-0.7,0.6-1.3,1.3-1.3h13.6c0.8,0,1.4-0.6,1.4-1.4   c0-0.8-0.6-1.4-1.4-1.4H23.2c-0.7,0-1.3-0.6-1.3-1.3V20.4c0-0.7,0.6-1.3,1.3-1.3h13.6c0.8,0,1.4-0.6,1.4-1.4s-0.6-1.4-1.4-1.4H23.2   c-0.7,0-1.3-0.6-1.3-1.3V6.8c0-3.7,3-6.8,6.8-6.8h32.7c3.7,0,6.8,3,6.8,6.8V15c0,0.7-0.6,1.3-1.3,1.3H53.2c-0.8,0-1.4,0.6-1.4,1.4   s0.6,1.4,1.4,1.4h13.6c0.7,0,1.3,0.6,1.3,1.3v10.9c0,0.7-0.6,1.3-1.3,1.3H53.2c-0.8,0-1.4,0.6-1.4,1.4c0,0.8,0.6,1.4,1.4,1.4h13.6   c0.7,0,1.3,0.6,1.3,1.3v10.9c0,0.7-0.6,1.3-1.3,1.3H53.2c-0.8,0-1.4,0.6-1.4,1.4c0,0.8,0.6,1.4,1.4,1.4h13.6c0.7,0,1.3,0.6,1.3,1.3   v8.2c0,3.7-3,6.8-6.8,6.8h-4.3c-0.5,2.7-2.6,4.8-5.3,5.3v9.7C51.8,87,48.7,90,45,90z M24.5,54.5v6.9c0,2.3,1.9,4.1,4.1,4.1h5.5   c0.7,0,1.3,0.6,1.3,1.3c0,2.3,1.9,4.1,4.1,4.1c0.7,0,1.3,0.6,1.3,1.3v10.9c0,2.3,1.9,4.1,4.1,4.1s4.1-1.9,4.1-4.1V72.3   c0-0.7,0.6-1.3,1.3-1.3c2.3,0,4.1-1.9,4.1-4.1c0-0.7,0.6-1.3,1.3-1.3h5.5c2.3,0,4.1-1.9,4.1-4.1v-6.9H53.2c-2.2,0-4.1-1.8-4.1-4.1   s1.8-4.1,4.1-4.1h12.3v-8.2H53.2c-2.2,0-4.1-1.8-4.1-4.1s1.8-4.1,4.1-4.1h12.3v-8.2H53.2c-2.2,0-4.1-1.8-4.1-4.1s1.8-4.1,4.1-4.1   h12.3V6.8c0-2.3-1.9-4.1-4.1-4.1H28.6c-2.3,0-4.1,1.9-4.1,4.1v6.9h12.3c2.2,0,4.1,1.8,4.1,4.1s-1.8,4.1-4.1,4.1H24.5V30h12.3   c2.2,0,4.1,1.8,4.1,4.1s-1.8,4.1-4.1,4.1H24.5v8.2h12.3c2.2,0,4.1,1.8,4.1,4.1s-1.8,4.1-4.1,4.1H24.5z"/></g><text x="0" y="105" fill="#000000" font-size="5px" font-weight="bold" font-family="'Helvetica Neue', Helvetica, Arial-Unicode, Arial, Sans-serif">Created by Muharrem Fevzi Çelik</text><text x="0" y="110" fill="#000000" font-size="5px" font-weight="bold" font-family="'Helvetica Neue', Helvetica, Arial-Unicode, Arial, Sans-serif">from the Noun Project</text></svg>