<svg xmlns="http://www.w3.org/2000/svg" xmlns:xlink="http://www.w3.org/1999/xlink" xmlns:sketch="http://www.bohemiancoding.com/sketch/ns" viewBox="0 0 40 50" version="1.1" x="0px" y="0px"><title>player_instrument_sound_audio</title><desc>Created with Sketch.</desc><g stroke="none" stroke-width="1" fill="none" fill-rule="evenodd" sketch:type="MSPage"><path d="M24,27.9421326 L26.9975383,27.9421326 C27.5511826,27.9421326 28,28.3859974 28,28.9421326 C28,29.4936122 27.5618221,29.9408269 27,29.94213 L27,30.5846651 C27.8257553,30.2018864 28.5857971,29.5207813 29.1406904,28.3830814 C31.3325463,23.8891108 25.9397819,21.2588843 25.9397819,21.2588843 L23.2433997,19.9437708 C19.6482236,18.1902861 9.57094632,21.9675229 9.57094632,21.9675229 C8.48837816,22.1624873 8.0057617,21.5303222 8.48934893,20.5388214 L15.9439187,5.2546883 C16.4289749,4.26017582 17.2296908,4.25097113 17.7356488,5.22740217 C17.7356488,5.22740217 20.9633371,15.4939039 24.5585132,17.2473887 L27.2548953,18.5625022 C27.2548953,18.5625022 34.4452479,22.0694709 31.3766496,28.3610296 C30.2746841,30.6203939 28.641176,31.6161371 27,31.96445 L27,31.96445 L27,34.9421326 L27.9975383,34.9421326 C28.5511826,34.9421326 29,35.3859974 29,35.9421326 C29,36.4944174 28.5605417,36.9421326 27.9975383,36.9421326 L8.00246167,36.9421326 C7.44881738,36.9421326 7,36.4982678 7,35.9421326 C7,35.3898479 7.43945834,34.9421326 8.00246167,34.9421326 L9,34.9421326 L9,29.9421297 C8.4474876,29.9408163 8,29.4974433 8,28.9421326 C8,28.3898479 8.43945834,27.9421326 9.00246167,27.9421326 L12,27.9421326 L12,25.9421326 L24,25.9421326 L24,27.9421326 Z" fill="#000000" sketch:type="MSShapeGroup"/></g><text x="0" y="55" fill="#000000" font-size="5px" font-weight="bold" font-family="'Helvetica Neue', Helvetica, Arial-Unicode, Arial, Sans-serif">Created by Pham Thi Dieu Linh</text><text x="0" y="60" fill="#000000" font-size="5px" font-weight="bold" font-family="'Helvetica Neue', Helvetica, Arial-Unicode, Arial, Sans-serif">from the Noun Project</text></svg>