<svg xmlns:x="http://ns.adobe.com/Extensibility/1.0/" xmlns:i="http://ns.adobe.com/AdobeIllustrator/10.0/" xmlns:graph="http://ns.adobe.com/Graphs/1.0/" xmlns="http://www.w3.org/2000/svg" xmlns:xlink="http://www.w3.org/1999/xlink" version="1.1" x="0px" y="0px" viewBox="0 0 100 100" enable-background="new 0 0 100 100" xml:space="preserve"><metadata><sfw xmlns="http://ns.adobe.com/SaveForWeb/1.0/"><slices></slices><sliceSourceBounds width="83.645" height="88.077" x="7.928" y="-94.338" bottomLeftOrigin="true"></sliceSourceBounds></sfw></metadata><path fill="none" d="M55.731,70.034h22.521V64.99H65.262l-0.942,1.634h7.357v2.496H53.064c-0.827,0.342-1.671,0.642-2.525,0.914  H55.731z"></path><path fill="#000000" d="M91.572,75.927v-4.192c0-0.938-0.76-1.7-1.699-1.7h-6.528V64.99v-1.632H62.9v1.632l0.941,1.634h-5.955  c2.073-1.301,4.02-2.837,5.793-4.61c6.172-6.168,9.565-14.369,9.565-23.093c0-8.726-3.394-16.927-9.565-23.095  c-6.167-6.168-14.369-9.565-23.093-9.565c-8.723,0-16.925,3.397-23.094,9.565c-6.167,6.169-9.565,14.37-9.565,23.095  c0,8.724,3.397,16.926,9.565,23.093c1.958,1.958,4.123,3.634,6.442,5.013v2.094h4.176c0.827,0.342,1.671,0.642,2.525,0.914H21.59  c-0.938,0-1.699,0.761-1.699,1.7v4.192h2.476v12.52h-2.476v4.192c0,0.938,0.761,1.699,1.699,1.699h34.141h34.141  c0.938,0,1.699-0.76,1.699-1.699v-4.192h-2.474v-12.52H91.572z M20.666,58.842c-5.322-5.322-8.251-12.396-8.251-19.921  c0-7.526,2.93-14.601,8.251-19.922c5.321-5.321,12.395-8.251,19.921-8.251c7.525,0,14.601,2.931,19.921,8.251  c5.321,5.322,8.252,12.396,8.252,19.922c0,7.524-2.931,14.599-8.252,19.921c-4.093,4.094-9.225,6.764-14.798,7.782  c-1.673,0.306-3.385,0.469-5.123,0.469s-3.449-0.163-5.122-0.469C29.891,65.605,24.758,62.936,20.666,58.842z M78.253,70.034H55.731  H50.54c0.854-0.272,1.698-0.572,2.525-0.914h18.612v-2.496h-7.357l0.942-1.634h12.991V70.034z"></path><circle fill="#000000" cx="40.593" cy="38.889" r="8.335"></circle></svg>